<svg width="48" height="48" viewBox="0 0 48 48" fill="none" xmlns="http://www.w3.org/2000/svg">
<path d="M20.1839 31V28.88H23.3639V19.82L20.9039 21.3L19.9039 19.42L24.1039 16.9H25.9239V28.88H28.9039V31H20.1839Z" fill="#1EB091"/>
<path d="M48 24C48 20.8483 47.3792 17.7274 46.1731 14.8156C44.967 11.9038 43.1992 9.25804 40.9706 7.02944C38.742 4.80083 36.0962 3.033 33.1844 1.82689C30.2726 0.620778 27.1517 -1.37766e-07 24 0L24 3.85643C26.6453 3.85643 29.2647 4.37746 31.7086 5.38977C34.1525 6.40208 36.3731 7.88584 38.2437 9.75635C40.1142 11.6269 41.5979 13.8475 42.6102 16.2914C43.6225 18.7353 44.1436 21.3547 44.1436 24H48Z" fill="#1EB091"/>
<path opacity="0.6" d="M24 -1.04907e-06C37.2548 -1.62846e-06 48 10.7452 48 24C48 37.2548 37.2548 48 24 48C10.7452 48 -4.69686e-07 37.2548 -1.04907e-06 24C-1.62846e-06 10.7452 10.7452 -4.69686e-07 24 -1.04907e-06ZM24 44.1436C35.125 44.1436 44.1436 35.125 44.1436 24C44.1436 12.875 35.125 3.85643 24 3.85643C12.875 3.85643 3.85643 12.875 3.85643 24C3.85643 35.125 12.875 44.1436 24 44.1436Z" fill="#1EB091"/>
</svg>
