<svg width="48" height="48" viewBox="0 0 48 48" fill="none" xmlns="http://www.w3.org/2000/svg">
<path d="M23.7239 31.2C22.7639 31.2 21.8439 31.06 20.9639 30.78C20.0972 30.4867 19.3772 30.0933 18.8039 29.6L19.6439 27.64C20.8439 28.5733 22.1772 29.04 23.6439 29.04C25.4439 29.04 26.3439 28.3333 26.3439 26.92C26.3439 26.2533 26.1172 25.76 25.6639 25.44C25.2239 25.1067 24.5772 24.94 23.7239 24.94H21.4639V22.82H23.4839C24.2306 22.82 24.8239 22.64 25.2639 22.28C25.7039 21.9067 25.9239 21.3933 25.9239 20.74C25.9239 20.1267 25.7172 19.66 25.3039 19.34C24.9039 19.02 24.3172 18.86 23.5439 18.86C22.1572 18.86 20.9372 19.34 19.8839 20.3L19.0439 18.38C19.6039 17.8467 20.3039 17.4333 21.1439 17.14C21.9839 16.8467 22.8572 16.7 23.7639 16.7C25.2306 16.7 26.3706 17.0333 27.1839 17.7C27.9972 18.3533 28.4039 19.2667 28.4039 20.44C28.4039 21.2 28.2106 21.8667 27.8239 22.44C27.4372 23.0133 26.9106 23.4267 26.2439 23.68C27.0572 23.9067 27.6906 24.3267 28.1439 24.94C28.5972 25.54 28.8239 26.2733 28.8239 27.14C28.8239 28.3933 28.3706 29.3867 27.4639 30.12C26.5572 30.84 25.3106 31.2 23.7239 31.2Z" fill="#1EB091"/>
<path opacity="0.6" d="M24 -1.04907e-06C37.2548 -1.62846e-06 48 10.7452 48 24C48 37.2548 37.2548 48 24 48C10.7452 48 -4.69686e-07 37.2548 -1.04907e-06 24C-1.62846e-06 10.7452 10.7452 -4.69686e-07 24 -1.04907e-06ZM24 44.1436C35.125 44.1436 44.1436 35.125 44.1436 24C44.1436 12.875 35.125 3.85643 24 3.85643C12.875 3.85643 3.85643 12.875 3.85643 24C3.85643 35.125 12.875 44.1436 24 44.1436Z" fill="#1EB091"/>
<path d="M2.09815e-06 24C1.68317e-06 28.7467 1.40757 33.3869 4.04473 37.3337C6.68189 41.2805 10.4302 44.3566 14.8156 46.1731C19.201 47.9896 24.0266 48.4649 28.6822 47.5388C33.3377 46.6128 37.6141 44.327 40.9706 40.9706C44.327 37.6141 46.6128 33.3377 47.5388 28.6822C48.4649 24.0266 47.9896 19.201 46.1731 14.8156C44.3566 10.4302 41.2805 6.68188 37.3337 4.04473C33.3869 1.40757 28.7468 -1.68317e-06 24 -2.09815e-06L24 3.85643C27.984 3.85643 31.8786 5.03783 35.1912 7.25123C38.5038 9.46464 41.0856 12.6106 42.6102 16.2914C44.1348 19.9721 44.5338 24.0223 43.7565 27.9298C42.9793 31.8373 41.0608 35.4265 38.2437 38.2437C35.4265 41.0608 31.8373 42.9793 27.9298 43.7565C24.0223 44.5338 19.9721 44.1348 16.2914 42.6102C12.6106 41.0856 9.46464 38.5038 7.25124 35.1912C5.03784 31.8786 3.85644 27.984 3.85644 24L2.09815e-06 24Z" fill="#1EB091"/>
</svg>
