<svg width="48" height="48" viewBox="0 0 48 48" fill="none" xmlns="http://www.w3.org/2000/svg">
<path d="M19.6039 31V29.1L24.1639 24.24C24.7772 23.5733 25.2172 22.9867 25.4839 22.48C25.7506 21.96 25.8839 21.4333 25.8839 20.9C25.8839 19.54 25.0639 18.86 23.4239 18.86C22.1439 18.86 20.9639 19.34 19.8839 20.3L19.0239 18.38C19.5839 17.8733 20.2839 17.4667 21.1239 17.16C21.9639 16.8533 22.8372 16.7 23.7439 16.7C25.2506 16.7 26.4039 17.04 27.2039 17.72C28.0172 18.4 28.4239 19.3733 28.4239 20.64C28.4239 21.4933 28.2172 22.3133 27.8039 23.1C27.4039 23.8867 26.7706 24.7333 25.9039 25.64L22.8039 28.88H28.9639V31H19.6039Z" fill="#1EB091"/>
<path opacity="0.6" d="M24 -1.04907e-06C37.2548 -1.62846e-06 48 10.7452 48 24C48 37.2548 37.2548 48 24 48C10.7452 48 -4.69686e-07 37.2548 -1.04907e-06 24C-1.62846e-06 10.7452 10.7452 -4.69686e-07 24 -1.04907e-06ZM24 44.1436C35.125 44.1436 44.1436 35.125 44.1436 24C44.1436 12.875 35.125 3.85643 24 3.85643C12.875 3.85643 3.85643 12.875 3.85643 24C3.85643 35.125 12.875 44.1436 24 44.1436Z" fill="#1EB091"/>
<path d="M24 48C30.3652 48 36.4697 45.4714 40.9706 40.9706C45.4714 36.4697 48 30.3652 48 24C48 17.6348 45.4714 11.5303 40.9706 7.02944C36.4697 2.52857 30.3652 1.90276e-07 24 -1.04907e-06L24 3.85643C29.3424 3.85643 34.466 5.9787 38.2437 9.75635C42.0213 13.534 44.1436 18.6576 44.1436 24C44.1436 29.3424 42.0213 34.466 38.2436 38.2437C34.466 42.0213 29.3424 44.1436 24 44.1436L24 48Z" fill="#1EB091"/>
</svg>
