<svg width="48" height="48" viewBox="0 0 48 48" fill="none" xmlns="http://www.w3.org/2000/svg">
<path d="M24.9839 31V28.32H18.8439V26.44L25.4239 16.9H27.5439V26.2H29.5239V28.32H27.5439V31H24.9839ZM24.9839 26.2V20.82L21.3039 26.2H24.9839Z" fill="#1EB091"/>
<path opacity="0.6" d="M24 -1.04907e-06C37.2548 -1.62846e-06 48 10.7452 48 24C48 37.2548 37.2548 48 24 48C10.7452 48 -4.69686e-07 37.2548 -1.04907e-06 24C-1.62846e-06 10.7452 10.7452 -4.69686e-07 24 -1.04907e-06ZM24 44.1436C35.125 44.1436 44.1436 35.125 44.1436 24C44.1436 12.875 35.125 3.85643 24 3.85643C12.875 3.85643 3.85643 12.875 3.85643 24C3.85643 35.125 12.875 44.1436 24 44.1436Z" fill="#1EB091"/>
<path d="M24 -1.04907e-06C37.2548 -1.62846e-06 48 10.7452 48 24C48 37.2548 37.2548 48 24 48C10.7452 48 -4.69686e-07 37.2548 -1.04907e-06 24C-1.62846e-06 10.7452 10.7452 -4.69686e-07 24 -1.04907e-06ZM24 44.1436C35.125 44.1436 44.1436 35.125 44.1436 24C44.1436 12.875 35.125 3.85643 24 3.85643C12.875 3.85643 3.85643 12.875 3.85643 24C3.85643 35.125 12.875 44.1436 24 44.1436Z" fill="#1EB091"/>
</svg>
